<?xml version="1.0" encoding="utf-8"?>
<!-- Generator: Adobe Illustrator 26.1.0, SVG Export Plug-In . SVG Version: 6.00 Build 0)  -->
<svg version="1.1" id="Layer_1" xmlns="http://www.w3.org/2000/svg" xmlns:xlink="http://www.w3.org/1999/xlink" x="0px" y="0px"
	 viewBox="0 0 292.9 52.8" style="enable-background:new 0 0 292.9 52.8;" xml:space="preserve">
<style type="text/css">
	.st0{fill:#EBEBED;}
	.st1{fill:url(#SVGID_1_);}
</style>
<g id="Layer_2_00000106830436911977151190000004560960998336287403_">
	<g id="Layer_2-2">
		<path class="st0" d="M59.9,23.6l5.1-11.2h-4.7L56,17.3H58l-1.8,4.3h-3.9l-5.3,5.9l6.7,10.1h6.2L52,25.9h4.4
			C57.9,25.9,59.3,25,59.9,23.6z"/>
		
			<linearGradient id="SVGID_1_" gradientUnits="userSpaceOnUse" x1="23.9431" y1="12.8121" x2="54.2084" y2="43.0774" gradientTransform="matrix(1 0 0 -1 0 51.8898)">
			<stop  offset="0.27" style="stop-color:#36C4E8"/>
			<stop  offset="1" style="stop-color:#AC4FDE"/>
		</linearGradient>
		<path class="st1" d="M29,44.2l20.4-22.6h-9.9l1.8-4.3h12l4.4-4.9H43.4c-2.8,0-5.3,1.6-6.4,4.1l-4.3,9.4h6.8L29,44.2z"/>
		<path class="st0" d="M48.4,8.6c2.8,0,5.7,0.6,8.2,1.9h6.9C59.3,6.8,54,4.7,48.4,4.7c-12.2,0-22.1,9.7-22.1,21.6
			c0,4.3,1.3,8.6,3.8,12.1l2.2-3.9c-1.4-2.5-2.1-5.4-2.1-8.3C30.4,16.5,38.5,8.5,48.4,8.6C48.4,8.6,48.4,8.6,48.4,8.6z"/>
		<path class="st0" d="M66.4,13.8l-2,4.3c1.4,2.5,2.1,5.4,2.1,8.3c-0.1,9.9-8.2,17.8-18.1,17.7c-4.5,0-8.8-1.6-12.2-4.6l-2.6,3
			c4.1,3.6,9.3,5.6,14.8,5.6c12.2,0,22.1-9.7,22.1-21.7C70.5,21.9,69.1,17.5,66.4,13.8z"/>
		<path class="st0" d="M110.6,17h4.8l-8.3,20.6h-4.8L110.6,17z M88.6,27.1h12.9l2-4.8H90.5L88.6,27.1z M125.6,17h-4.8l-8.3,20.6
			h24.4l1.9-4.8h-19.6L125.6,17z M252.6,37.6L252.6,37.6c-0.1,0-0.1,0-0.2,0h-13.9l8.3-20.5h13.6C270.9,17.2,267.7,37.2,252.6,37.6
			L252.6,37.6z M258.5,21.8h-8.8l-4.4,11h8.1C259.5,32.8,265.5,21.6,258.5,21.8z M88.4,12.5h-0.6c-2.9,0.3-5.3,1.9-8.1,9.5
			l-6.3,15.6h4.8l8.2-20.4h19l1.9-4.7H88.4z M222,20.7l-0.7-3.7h-0.4l-20.5,20.6h4.7L218,24.8l2.5,12.9h4.8L222,20.7L222,20.7z
			 M229.2,37.6h4.8l8.3-20.6h-4.8L229.2,37.6z M204.4,12.5h1.1l-5,12.4c-0.7,1.4-2.2,2.3-3.8,2.2h-4l4.3,10.6h-4.8l-4.2-10.6h-7.1
			l-4.3,10.6h-4.8l10.1-25.2H204.4z M198.8,17.2h-14l-2,5.1h14L198.8,17.2z M156.6,29.9l-2-12.9h-4.8l-8.3,20.6h4.8l4.9-12.2
			l1.4,8.5l0,0l0.7,3.7h0.4l12.5-12.5l-5.1,12.5h4.8l8.3-20.6h-4.8L156.6,29.9z"/>
	</g>
</g>
</svg>
