<?xml version="1.0" encoding="utf-8"?>
<!-- Generator: Adobe Illustrator 26.1.0, SVG Export Plug-In . SVG Version: 6.00 Build 0)  -->
<svg version="1.1" id="Layer_1" xmlns="http://www.w3.org/2000/svg" xmlns:xlink="http://www.w3.org/1999/xlink" x="0px" y="0px"
	 viewBox="0 0 292.9 52.8" style="enable-background:new 0 0 292.9 52.8;" xml:space="preserve">
<style type="text/css">
	.st0{fill:#303651;}
	.st1{fill:url(#SVGID_1_);}
</style>
<g id="Layer_2_00000092428804780632072120000004506081254359011746_">
	<g id="Layer_2-2">
		<path class="st0" d="M40.9,23l6.2-13.7h-5.7l-5.2,6h2.4l-2.2,5.2h-4.8l-6.5,7.2l8.2,12.3h7.6l-9.6-14.3h5.4
			C38.5,25.8,40.2,24.7,40.9,23z"/>
		
			<linearGradient id="SVGID_1_" gradientUnits="userSpaceOnUse" x1="-2.9309" y1="831.862" x2="33.9571" y2="794.974" gradientTransform="matrix(1 0 0 1 0 -790)">
			<stop  offset="0.27" style="stop-color:#36C4E8"/>
			<stop  offset="1" style="stop-color:#AC4FDE"/>
		</linearGradient>
		<path class="st1" d="M3.2,48.1l24.9-27.6H16l2.2-5.2h14.6l5.4-6H20.8c-3.4,0-6.5,2-7.8,5L7.7,25.8H16L3.2,48.1z"/>
		<path class="st0" d="M26.9,4.7c3.4,0,7,0.7,10,2.3h8.4c-5.1-4.5-11.6-7.1-18.4-7.1C12-0.1-0.1,11.8-0.1,26.3
			c0,5.2,1.6,10.5,4.6,14.8l2.7-4.8c-1.7-3-2.6-6.6-2.6-10.1C4.9,14.3,14.8,4.6,26.9,4.7L26.9,4.7z"/>
		<path class="st0" d="M48.8,11l-2.4,5.2c1.7,3,2.6,6.6,2.6,10.1C48.8,38.5,39,48.1,26.9,48c-5.5,0-10.7-2-14.9-5.6L8.8,46
			c5,4.4,11.3,6.8,18,6.8c14.9,0,26.9-11.8,26.9-26.5C53.8,20.9,52.1,15.5,48.8,11z"/>
		<path class="st0" d="M102.7,14.9h5.9L98.5,40.1h-5.9L102.7,14.9z M75.9,27.3h15.7l2.4-5.9H78.2L75.9,27.3z M121,14.9h-5.9
			l-10.1,25.1h29.8l2.3-5.9h-23.9L121,14.9z M275.9,40.1L275.9,40.1c-0.1,0-0.1,0-0.2,0h-17l10.1-25h16.6
			C298.2,15.2,294.3,39.6,275.9,40.1L275.9,40.1z M283.1,20.8h-10.7L267,34.2h9.9C284.3,34.2,291.6,20.5,283.1,20.8z M75.7,9.4h-0.7
			c-3.5,0.4-6.5,2.3-9.9,11.6l-7.7,19h5.9l10-24.9h23.2l2.3-5.7C98.7,9.4,75.7,9.4,75.7,9.4z M238.6,19.4l-0.9-4.5h-0.5l-25,25.1
			h5.7l15.7-15.6l3,15.7h5.9L238.6,19.4L238.6,19.4z M247.4,40.1h5.9l10.1-25.1h-5.9L247.4,40.1z M217.1,9.4h1.3l-6.1,15.1
			c-0.9,1.7-2.7,2.8-4.6,2.7h-4.9l5.2,12.9h-5.9l-5.1-12.9h-8.7l-5.2,12.9h-5.9l12.3-30.7H217.1z M210.3,15.2h-17.1l-2.4,6.2h17.1
			L210.3,15.2z M158.8,30.7l-2.4-15.7h-5.9l-10.1,25.1h5.9l6-14.9l1.7,10.4l0,0l0.9,4.5h0.5l15.2-15.2l-6.2,15.2h5.9l10.1-25.1h-5.9
			L158.8,30.7z"/>
	</g>
</g>
</svg>
