<svg xmlns="http://www.w3.org/2000/svg" xmlns:xlink="http://www.w3.org/1999/xlink" viewBox="0 0 292.85 52.77"><defs><style>.cls-1{fill:#ebebed;}.cls-2{fill:url(#linear-gradient);}</style><linearGradient id="linear-gradient" x1="-2.86" y1="41.86" x2="34.03" y2="4.97" gradientUnits="userSpaceOnUse"><stop offset="0.27" stop-color="#36c4e8"/><stop offset="1" stop-color="#ac4fde"/></linearGradient></defs><g id="Layer_2" data-name="Layer 2"><g id="Layer_2-2" data-name="Layer 2"><path class="cls-1" d="M41,23,47.24,9.29H41.57l-5.33,6h2.37l-2.25,5.25H31.57l-6.41,7.21,8.2,12.3h7.5L31.36,25.8H36.7A4.71,4.71,0,0,0,41,23Z"/><path class="cls-2" d="M3.33,48.05,28.18,20.54H16.1l2.25-5.25H32.93l5.42-6H20.88a8.59,8.59,0,0,0-7.82,5L7.85,25.8H16.1Z"/><path class="cls-1" d="M26.94,4.73a22.33,22.33,0,0,1,10,2.33h8.36A27.14,27.14,0,0,0,26.94,0C12.06,0,0,11.81,0,26.38A25.91,25.91,0,0,0,4.64,41.17l2.73-4.73A21.09,21.09,0,0,1,4.83,26.38,21.88,21.88,0,0,1,26.94,4.73Z"/><path class="cls-1" d="M48.88,11.09,46.5,16.31a21.17,21.17,0,0,1,2.55,10.07A21.88,21.88,0,0,1,26.94,48a22.3,22.3,0,0,1-14.86-5.61L8.91,46a27.16,27.16,0,0,0,18,6.79c14.88,0,26.94-11.82,26.94-26.39A25.81,25.81,0,0,0,48.88,11.09Z"/><path class="cls-1" d="M102.81,15h5.83L98.51,40.06H92.69ZM75.9,27.2H91.62L94,21.38H78.25ZM121,15h-5.83L105,40.06h29.74l2.36-5.82H113.17Zm154.87,25h0a1.36,1.36,0,0,1-.24,0h-16.9L268.8,15h16.59C298.12,15.22,294.3,39.55,275.82,40.05ZM283,20.84H272.27l-5.42,13.4h9.9C284.28,34.18,291.61,20.54,283,20.84ZM75.71,9.4H75c-3.56.37-6.48,2.33-9.82,11.62l-7.7,19h5.83l10-24.84H96.46L98.82,9.4ZM238.56,19.51l-.89-4.5h-.45l-25,25.05H218l15.65-15.67,3.08,15.67h5.83l-4-20.54Zm8.81,20.55h5.83L263.33,15H257.5ZM217.14,9.4h1.28l-6.1,15.08a5,5,0,0,1-4.69,2.72h-4.84L208,40.06h-5.82L197,27.2h-8.62l-5.2,12.86h-5.83L189.72,9.4h27.42Zm-6.9,5.82H193.19l-2.49,6.16h17.05Zm-51.4,15.46L156.4,15h-5.83L140.44,40.06h5.83l6-14.83L154,35.56h0l.89,4.5h.45l15.21-15.24-6.16,15.24h5.83L180.32,15h-5.83Z"/></g></g></svg>