<svg xmlns="http://www.w3.org/2000/svg" xmlns:xlink="http://www.w3.org/1999/xlink" viewBox="0 0 53.88 52.77"><defs><style>.cls-1{fill:#303651;}.cls-2{fill:url(#linear-gradient);}</style><linearGradient id="linear-gradient" x1="-2.86" y1="41.86" x2="34.03" y2="4.97" gradientUnits="userSpaceOnUse"><stop offset="0.27" stop-color="#36c4e8"/><stop offset="1" stop-color="#ac4fde"/></linearGradient></defs><g id="Layer_2" data-name="Layer 2"><g id="Layer_1-2" data-name="Layer 1"><path class="cls-1" d="M41,23,47.24,9.29H41.57l-5.33,6h2.37l-2.25,5.25H31.57l-6.41,7.21,8.2,12.3h7.5L31.36,25.8H36.7A4.71,4.71,0,0,0,41,23Z"/><path class="cls-2" d="M3.33,48.05,28.18,20.54H16.1l2.25-5.25H32.93l5.42-6H20.88a8.59,8.59,0,0,0-7.82,5L7.85,25.8H16.1Z"/><path class="cls-1" d="M26.94,4.73a22.33,22.33,0,0,1,10,2.33h8.36A27.14,27.14,0,0,0,26.94,0C12.06,0,0,11.81,0,26.38A25.91,25.91,0,0,0,4.64,41.17l2.73-4.73A21.09,21.09,0,0,1,4.83,26.38,21.88,21.88,0,0,1,26.94,4.73Z"/><path class="cls-1" d="M48.88,11.09,46.5,16.31a21.17,21.17,0,0,1,2.55,10.07A21.88,21.88,0,0,1,26.94,48a22.3,22.3,0,0,1-14.86-5.61L8.91,46a27.16,27.16,0,0,0,18,6.79c14.88,0,26.94-11.82,26.94-26.39A25.81,25.81,0,0,0,48.88,11.09Z"/></g></g></svg>